<svg width="664" height="484" viewBox="0 0 664 484" fill="none" xmlns="http://www.w3.org/2000/svg">
<path fill-rule="evenodd" clip-rule="evenodd" d="M590.606 124.103C590.141 123.767 589.037 123.649 588.525 123.547C586.39 123.13 584.192 122.948 582.017 122.948C575.31 122.959 568.494 123.612 561.898 124.744C557.71 125.462 552.647 127.88 548.481 126.567C541.224 124.279 533.889 124.392 527.003 127.657C520.708 130.644 515.929 136.316 513.14 142.444C512.719 143.37 511.012 146.775 510.529 149.07C510.322 149.54 510.123 150.012 509.945 150.491C509.437 151.853 508.981 153.238 508.558 154.627C508.377 155.22 507.923 156.527 508.462 156.78C507.6 158.362 506.835 159.991 506.198 161.673C504.346 166.567 502.319 171.935 501.668 177.122C501.427 179.042 501.418 180.974 501.642 182.898C501.753 183.849 501.707 185.761 502.356 186.485C503.734 188.019 504.441 185.871 504.286 184.847C503.101 177.05 505.391 169.727 508.105 162.396C509.861 157.657 512.745 153.32 515.976 149.393C518.591 146.214 521.395 143.711 524.98 141.603C529.363 139.026 534.05 136.943 538.692 134.853C541.746 133.478 544.804 132.139 547.943 130.955C548.641 130.691 549.739 130.014 550.513 130.012C552.149 130.007 554.469 131.206 556.05 131.652C561.25 133.12 566.516 135 571.89 135.75C575.337 136.231 578.566 135.689 581.79 134.549C582.119 134.433 582.672 134.133 583.348 133.705C585.742 132.791 588.006 131.64 589.977 129.98C591.112 129.024 592.144 127.787 593.084 126.656C593.364 126.318 593.489 125.93 593.493 125.561C593.706 125.451 593.847 125.321 593.88 125.171C594.114 124.057 591.975 124.037 590.606 124.103Z" fill="#B564DB"/>
<path fill-rule="evenodd" clip-rule="evenodd" d="M45.7401 216.926C44.4242 217.984 43.1336 219.065 41.8745 220.189C40.9149 221.047 39.2167 222.073 38.8721 223.371C38.514 224.721 39.6446 225.984 40.5377 226.8C45.2605 231.115 50.5786 234.032 57.1229 234.518C67.1996 235.265 75.9693 232.709 84.7125 227.681C90.8538 224.149 94.9219 218.924 95.8103 211.87C103.124 214.888 110.198 219.049 116.209 224.156C119.175 226.675 121.73 229.467 124.092 232.561C125.606 234.544 127.07 236.558 128.428 238.65C129.018 239.558 129.619 241.17 130.594 241.693C131.738 242.308 133.122 241.344 133.065 240.081C133.017 239.029 131.874 237.809 131.339 236.949C130.452 235.522 129.55 234.102 128.601 232.714C127.064 230.466 125.477 228.25 123.745 226.146C119.853 221.419 114.902 217.515 109.77 214.185C99.9228 207.797 89.1162 203.772 77.1352 203.431C69.7682 203.222 63.5707 205.721 57.2707 209.454C53.3484 211.778 49.2994 214.064 45.7401 216.926Z" fill="#DDE3E9"/>
<path fill-rule="evenodd" clip-rule="evenodd" d="M141.303 186.028C133.626 178.177 125.922 170.423 117.345 163.509C112.29 159.435 106.963 155.73 101.746 151.868C102.347 152.391 102.938 152.93 103.514 153.482C101.885 152.384 99.7535 151.764 98.0272 150.747C96.1013 149.614 94.26 148.317 92.4543 147.01C88.9294 144.459 85.4577 141.86 81.8343 139.443C77.7976 136.749 73.6141 134.261 69.5087 131.669C66.0243 129.469 62.4974 127.061 58.7699 125.263C56.7383 124.283 54.7019 123.122 52.662 122.099C51.9793 121.757 45.0518 117.413 45.0692 117.4C45.4522 117.114 48.9383 118.74 49.4773 118.959C51.0522 119.598 52.5582 120.362 54.0722 121.124C53.2412 119.496 52.5834 117.785 52.2253 115.985C52.1147 115.429 51.2284 111.384 51.6819 111.044C51.9084 110.875 54.1185 118.113 54.2317 118.808C54.3237 119.374 54.3102 120.188 54.4965 120.723C54.7973 121.588 54.7821 121.326 55.4448 121.814C56.6593 122.706 58.2714 123.264 59.5859 124.009C60.2948 124.402 62.4894 125.961 63.8112 126.405C67.8108 128.334 71.8649 131.302 75.6651 133.766C74.6678 131.905 73.9087 129.959 73.3553 127.919C73.2235 127.435 71.8032 123.091 72.1479 122.833C72.5356 122.542 75.242 129.178 75.4023 129.805C75.7001 130.972 75.7619 132.27 76.135 133.406C76.5439 134.652 77.8212 135.094 78.972 135.82C83.2066 138.492 87.2965 141.331 91.3175 144.301C95.7055 136.551 90.6461 127.193 86.3828 120.691C83.3086 116.004 79.1717 111.986 74.8026 108.479C68.9721 103.797 62.3013 100.058 55.6387 96.637C47.8754 92.6516 39.4847 90.1814 30.7614 89.0411C26.199 88.4436 21.5315 88.461 16.923 88.6523C14.6717 88.7449 12.5109 89.0411 10.3535 89.771C9.38108 90.1 8.44131 90.5147 7.52551 90.9788C6.82969 91.3312 5.14649 91.7035 4.7464 92.229C1.45315 96.4863 -0.231622 100.728 0.0256616 106.077C0.268909 111.141 1.87922 116.207 4.06461 120.724C6.49838 125.752 9.62851 130.317 13.7223 134.148C16.8456 137.071 20.3375 139.615 23.8063 142.126C36.144 151.055 51.7861 158.822 67.7655 156.826C72.9381 156.181 77.8578 154.385 82.4551 151.943C83.5388 151.368 84.6155 150.786 85.6382 150.107C86.3278 149.649 88.1709 147.586 88.8641 147.511C89.8153 147.409 91.8624 149.328 92.7543 149.912C99.5321 154.356 106.132 159.04 112.593 163.913C119.469 169.098 126.006 174.635 132.351 180.433C135.05 182.899 137.731 185.371 140.351 187.92C140.962 188.513 142.453 190.697 143.56 190.795C144.259 190.859 144.731 190.265 144.631 189.622C144.458 188.504 142.09 186.832 141.303 186.028Z" fill="#E0BAF1"/>
<path fill-rule="evenodd" clip-rule="evenodd" d="M582.546 155.554C579.573 154.909 576.289 154.959 573.26 155.011C557.014 155.231 541.06 162.87 530.678 175.074C521.84 185.464 519.409 198.383 517.663 211.441C517.49 212.737 517.416 214.026 517.318 215.325C517.297 215.604 517.266 215.852 517.232 216.087C516.546 216.697 516.185 217.407 516.592 218.188C515.079 221.476 513.799 224.847 512.701 228.324C509.469 238.558 506.182 248.987 508.206 259.748C508.68 253.826 509.675 247.77 510.866 241.945C510.934 241.611 511.008 241.279 511.084 240.949C511.093 240.914 511.1 240.878 511.108 240.844C511.529 239.06 512.077 237.33 512.743 235.627C512.75 235.608 512.757 235.59 512.764 235.572C512.852 235.348 512.945 235.124 513.037 234.902C513.228 234.44 513.424 233.98 513.632 233.521C513.703 233.365 513.77 233.207 513.835 233.049C514.805 230.688 515.214 228.029 516.083 225.587C516.29 225.032 516.507 224.479 516.735 223.928C516.749 223.896 516.762 223.864 516.776 223.832C517.391 222.351 518.071 220.888 518.79 219.44C519.18 219.149 519.389 218.426 519.726 217.769C519.795 217.639 520.34 216.775 520.502 216.278C520.926 215.465 521.347 214.652 521.773 213.839C521.761 213.845 521.748 213.849 521.735 213.854C522.161 213.074 522.589 212.298 523.014 211.525C523.107 211.355 523.201 211.186 523.296 211.015C523.448 210.744 523.601 210.473 523.752 210.203C525.175 207.674 526.685 205.196 528.251 202.748C528.811 201.874 530.147 200.622 530.403 199.642C530.413 199.604 530.414 199.57 530.42 199.536C533.821 194.793 537.734 190.419 542.429 186.953C541.862 187.562 540.655 189.629 540.337 190.039C539.36 191.291 538.301 192.458 537.238 193.639C535.333 195.754 533.474 197.936 531.822 200.243C528.8 204.463 526.194 208.904 523.73 213.435C523.707 213.461 523.681 213.486 523.659 213.514C522.42 215.03 521.641 217.321 520.75 219.055C524.277 217.433 528.179 216.375 531.799 214.935C535.41 213.498 538.922 211.898 542.313 210.02C546.82 207.523 551.496 204.705 555.754 201.515C560.634 198.509 564.735 194.371 568.355 190.029C572.637 184.891 576.562 179.709 578.99 173.471C580.182 170.406 581.12 167.209 581.677 163.975C581.701 163.835 581.732 163.682 581.766 163.523C582.335 162.406 582.843 161.264 583.27 160.096C583.948 158.243 585.549 156.205 582.546 155.554Z" fill="#9A36C9"/>
<path fill-rule="evenodd" clip-rule="evenodd" d="M78.6388 177.261C77.7076 176.259 76.6614 175.355 75.4327 174.71C75.1221 174.547 72.8085 173.456 72.6579 173.695C72.3069 174.253 78.3589 176.941 78.6388 177.261ZM89.6084 170.569C89.6006 170.611 90.4027 171.963 90.6215 172.378C91.0862 173.262 91.5152 174.163 91.9188 175.066C91.3216 173.472 90.707 171.993 89.6084 170.569ZM33.5091 181.573C32.7365 181.819 31.8076 180.845 32.8097 180.606C33.6207 180.413 33.5809 180.368 33.945 179.719C34.2406 179.193 34.4228 178.55 34.6822 177.998C35.2325 176.825 35.8568 175.707 36.6231 174.659C38.2653 172.413 40.2661 170.478 42.5102 168.847C46.4266 166.002 50.8179 163.4 55.4761 162.093C62.8826 160.015 71.3122 159.887 78.7303 161.328C83.325 162.22 87.523 163.771 90.5736 167.445C92.0984 169.28 93.2955 171.431 93.8186 173.799C93.9555 174.418 93.9293 175.107 94.1002 175.713C94.3635 176.645 94.2476 176.397 95.3452 176.578C96.5431 176.776 97.7402 176.978 98.9372 177.184C102.072 177.722 105.224 178.294 108.278 179.167C109.284 179.455 110.266 179.806 111.227 180.214C111.953 180.522 114.845 181.491 115.196 182.428C115.781 183.988 113.822 183.281 113.212 182.941C112.679 182.644 112.131 182.366 111.576 182.11C110.176 181.468 108.719 180.97 107.228 180.574C105.617 180.147 103.973 179.827 102.335 179.507C100.808 179.209 99.2755 178.938 97.7402 178.678C96.8875 178.535 96.0349 178.394 95.1813 178.255C94.8892 178.206 94.3757 177.956 94.4141 178.333C92.6198 177.989 90.6799 178.038 88.8525 177.944C86.6145 177.828 84.3677 177.733 82.1218 177.802C80.5019 177.852 78.8811 177.958 77.2691 178.174C76.3275 178.301 75.4009 178.485 74.477 178.719C73.9695 178.848 71.9682 179.121 71.6918 179.56C71.8105 179.371 74.0192 179.554 74.3003 179.543C75.4248 179.502 76.5402 179.391 77.6606 179.267C79.7399 179.036 81.8193 178.915 83.9048 178.933C83.8969 179.296 82.4723 179.944 82.1244 180.185C81.345 180.726 80.5978 181.315 79.9012 181.961C78.6745 183.1 77.2046 184.51 76.3563 185.86C76.6065 185.462 77.8402 184.945 78.2778 184.641C78.9797 184.155 79.6676 183.635 80.318 183.08C80.9178 182.568 81.4784 182.013 82.0294 181.448C82.5804 180.883 83.3276 179.706 84.0521 179.329C84.0957 179.306 84.4113 179.554 84.59 179.47C84.7714 179.385 84.9963 178.96 85.0417 178.943C85.7156 178.685 86.9955 179.006 87.7043 179.039C89.5413 179.123 91.3774 179.233 93.2127 179.334C93.782 179.365 94.265 179.236 94.4803 179.652C94.7088 180.097 94.2894 181.265 94.17 181.749C93.7271 183.547 92.9415 185.158 91.7035 186.551C89.3861 189.16 86.5273 190.899 83.2988 192.062C70.9322 196.518 57.7756 198.302 45.4126 193.668C40.2943 191.748 32.5862 188.319 33.5091 181.573Z" fill="#B564DB"/>
<g opacity="0.6">
<path opacity="0.6" fill-rule="evenodd" clip-rule="evenodd" d="M599.748 391.488C608.161 448.047 404.127 484.939 228.51 459.193C52.8931 433.447 -27.6715 332.906 56.1299 279.335C139.932 225.762 591.334 334.928 599.748 391.488Z" fill="#DDE3E9"/>
</g>
<path d="M240.797 20.7798H116.122C112.27 20.7798 109.147 23.881 109.147 27.7064V275.334C109.147 279.16 112.27 282.261 116.122 282.261H240.797C244.649 282.261 247.772 279.16 247.772 275.334V27.7064C247.772 23.881 244.649 20.7798 240.797 20.7798Z" fill="#F2F2F2"/>
<path fill-rule="evenodd" clip-rule="evenodd" d="M178.023 265.81C185.246 265.81 191.101 259.995 191.101 252.823C191.101 245.65 185.246 239.835 178.023 239.835C170.801 239.835 164.946 245.65 164.946 252.823C164.946 259.995 170.801 265.81 178.023 265.81Z" fill="white"/>
<path fill-rule="evenodd" clip-rule="evenodd" d="M166.689 38.0957C167.653 38.0957 168.433 37.3204 168.433 36.364C168.433 35.4076 167.653 34.6323 166.689 34.6323C165.726 34.6323 164.946 35.4076 164.946 36.364C164.946 37.3204 165.726 38.0957 166.689 38.0957Z" fill="white"/>
<path d="M189.357 34.6323H174.536C173.573 34.6323 172.792 35.4076 172.792 36.364C172.792 37.3204 173.573 38.0957 174.536 38.0957H189.357C190.32 38.0957 191.101 37.3204 191.101 36.364C191.101 35.4076 190.32 34.6323 189.357 34.6323Z" fill="white"/>
<path d="M232.078 45.0229H124.84C122.914 45.0229 121.353 46.5735 121.353 48.4863V88.3145C121.353 90.2273 122.914 91.7779 124.84 91.7779H232.078C234.004 91.7779 235.566 90.2273 235.566 88.3145V48.4863C235.566 46.5735 234.004 45.0229 232.078 45.0229Z" fill="white"/>
<path d="M216.384 59.0493H157.97C156.526 59.0493 155.355 60.2123 155.355 61.6468V63.4651C155.355 64.8996 156.526 66.0626 157.97 66.0626H216.384C217.829 66.0626 219 64.8996 219 63.4651V61.6468C219 60.2123 217.829 59.0493 216.384 59.0493Z" fill="#DDE3E9"/>
<path d="M195.46 70.7378H157.97C156.526 70.7378 155.355 71.9007 155.355 73.3353V75.1535C155.355 76.5881 156.526 77.751 157.97 77.751H195.46C196.905 77.751 198.076 76.5881 198.076 75.1535V73.3353C198.076 71.9007 196.905 70.7378 195.46 70.7378Z" fill="#DDE3E9"/>
<path fill-rule="evenodd" clip-rule="evenodd" d="M139.662 78.7902C145.44 78.7902 150.124 74.1381 150.124 68.4002C150.124 62.6624 145.44 58.0103 139.662 58.0103C133.884 58.0103 129.2 62.6624 129.2 68.4002C129.2 74.1381 133.884 78.7902 139.662 78.7902Z" fill="#C5CFD6"/>
<path d="M232.078 98.7046H124.84C122.914 98.7046 121.353 100.255 121.353 102.168V131.606C121.353 133.519 122.914 135.07 124.84 135.07H232.078C234.004 135.07 235.566 133.519 235.566 131.606V102.168C235.566 100.255 234.004 98.7046 232.078 98.7046Z" fill="white"/>
<path d="M216.384 109.614H157.97C156.526 109.614 155.355 110.777 155.355 112.211V112.471C155.355 113.906 156.526 115.068 157.97 115.068H216.384C217.829 115.068 219 113.906 219 112.471V112.211C219 110.777 217.829 109.614 216.384 109.614Z" fill="#DDE3E9"/>
<path d="M195.46 118.705H157.97C156.526 118.705 155.355 119.868 155.355 121.303V121.562C155.355 122.997 156.526 124.16 157.97 124.16H195.46C196.905 124.16 198.076 122.997 198.076 121.562V121.303C198.076 119.868 196.905 118.705 195.46 118.705Z" fill="#DDE3E9"/>
<path fill-rule="evenodd" clip-rule="evenodd" d="M139.662 127.277C145.44 127.277 150.124 122.624 150.124 116.887C150.124 111.149 145.44 106.497 139.662 106.497C133.884 106.497 129.2 111.149 129.2 116.887C129.2 122.624 133.884 127.277 139.662 127.277Z" fill="#C5CFD6"/>
<path d="M232.078 141.996H124.84C122.914 141.996 121.353 143.547 121.353 145.459V174.898C121.353 176.81 122.914 178.361 124.84 178.361H232.078C234.004 178.361 235.566 176.81 235.566 174.898V145.459C235.566 143.547 234.004 141.996 232.078 141.996Z" fill="white"/>
<path d="M216.384 152.906H157.97C156.526 152.906 155.355 154.069 155.355 155.503V155.763C155.355 157.198 156.526 158.36 157.97 158.36H216.384C217.829 158.36 219 157.198 219 155.763V155.503C219 154.069 217.829 152.906 216.384 152.906Z" fill="#DDE3E9"/>
<path d="M195.46 161.997H157.97C156.526 161.997 155.355 163.16 155.355 164.594V164.854C155.355 166.288 156.526 167.451 157.97 167.451H195.46C196.905 167.451 198.076 166.288 198.076 164.854V164.594C198.076 163.16 196.905 161.997 195.46 161.997Z" fill="#DDE3E9"/>
<path fill-rule="evenodd" clip-rule="evenodd" d="M139.662 170.569C145.44 170.569 150.124 165.916 150.124 160.179C150.124 154.441 145.44 149.789 139.662 149.789C133.884 149.789 129.2 154.441 129.2 160.179C129.2 165.916 133.884 170.569 139.662 170.569Z" fill="#AFB9C5"/>
<path d="M232.078 185.288H124.84C122.914 185.288 121.353 186.838 121.353 188.751V218.189C121.353 220.102 122.914 221.653 124.84 221.653H232.078C234.004 221.653 235.566 220.102 235.566 218.189V188.751C235.566 186.838 234.004 185.288 232.078 185.288Z" fill="white"/>
<path d="M216.384 196.196H157.97C156.526 196.196 155.355 197.359 155.355 198.794V199.054C155.355 200.488 156.526 201.651 157.97 201.651H216.384C217.829 201.651 219 200.488 219 199.054V198.794C219 197.359 217.829 196.196 216.384 196.196Z" fill="#DDE3E9"/>
<path d="M195.46 205.288H157.97C156.526 205.288 155.355 206.451 155.355 207.886V208.145C155.355 209.58 156.526 210.743 157.97 210.743H195.46C196.905 210.743 198.076 209.58 198.076 208.145V207.886C198.076 206.451 196.905 205.288 195.46 205.288Z" fill="#DDE3E9"/>
<path fill-rule="evenodd" clip-rule="evenodd" d="M139.662 213.86C145.44 213.86 150.124 209.208 150.124 203.47C150.124 197.732 145.44 193.08 139.662 193.08C133.884 193.08 129.2 197.732 129.2 203.47C129.2 209.208 133.884 213.86 139.662 213.86Z" fill="#C5CFD6"/>
<path fill-rule="evenodd" clip-rule="evenodd" d="M135.424 232.044C134.269 232.044 133.117 232.067 131.964 232.126C131.084 232.172 129.741 231.991 128.997 232.536C128.224 233.101 128.277 234.258 128.398 235.075C129.036 239.397 130.594 243.23 133.854 246.292C138.873 251.007 144.627 253.402 151.435 254.469C156.218 255.219 160.633 254.178 164.154 250.8C166.727 255.542 168.678 260.789 169.657 266.084C170.14 268.697 170.287 271.279 170.203 273.94C170.148 275.644 170.053 277.344 169.87 279.04C169.789 279.777 169.411 280.892 169.701 281.589C170.042 282.407 171.192 282.486 171.708 281.789C172.138 281.208 172.06 280.068 172.148 279.382C172.294 278.24 172.429 277.098 172.526 275.952C172.684 274.097 172.8 272.236 172.792 270.373C172.772 266.188 171.835 261.987 170.553 258.015C168.094 250.393 164.106 243.619 157.902 238.305C154.086 235.037 149.72 233.714 144.767 233.003C141.683 232.561 138.548 232.044 135.424 232.044Z" fill="#B564DB"/>
<path fill-rule="evenodd" clip-rule="evenodd" d="M153.238 262.348C140.771 262.348 132.375 272.326 128.405 282.697C126.909 286.605 126.558 290.898 125.981 295.002C125.796 296.32 125.865 298.327 125.326 299.5C125.131 299.926 124.683 300.079 124.897 300.659C125.027 301.009 125.281 301.225 125.664 301.294C126.447 301.438 127.556 300.589 128.228 300.255C133.805 297.478 137.468 293.183 140.457 287.929C142.311 284.673 144.19 281.292 145.291 277.717C145.963 275.532 146.354 273.233 146.584 270.967C146.675 270.074 146.762 269.161 146.757 268.264C146.752 267.373 146.334 266.902 146.034 266.127C150.194 264.563 154.89 264.137 159.103 265.757C163.001 267.256 166.238 270.152 168.05 273.791C168.521 274.736 168.885 275.734 169.149 276.752C169.322 277.419 169.33 278.283 169.652 278.886C170.43 280.347 172.067 279.37 171.91 278.01C171.472 274.217 169.287 270.408 166.493 267.771C162.97 264.444 158.196 262.348 153.238 262.348Z" fill="#B564DB"/>
<path d="M298.339 43.292H173.664C169.812 43.292 166.689 46.3932 166.689 50.2186V297.847C166.689 301.672 169.812 304.773 173.664 304.773H298.339C302.191 304.773 305.314 301.672 305.314 297.847V50.2186C305.314 46.3932 302.191 43.292 298.339 43.292Z" fill="#DDE3E9"/>
<path fill-rule="evenodd" clip-rule="evenodd" d="M235.565 288.322C242.788 288.322 248.643 282.507 248.643 275.335C248.643 268.162 242.788 262.347 235.565 262.347C228.343 262.347 222.488 268.162 222.488 275.335C222.488 282.507 228.343 288.322 235.565 288.322Z" fill="white"/>
<path fill-rule="evenodd" clip-rule="evenodd" d="M224.231 60.6083C225.195 60.6083 225.975 59.8334 225.975 58.8767C225.975 57.9199 225.195 57.145 224.231 57.145C223.268 57.145 222.488 57.9199 222.488 58.8767C222.488 59.8334 223.268 60.6083 224.231 60.6083Z" fill="white"/>
<path d="M246.9 57.145H232.078C231.115 57.145 230.334 57.9203 230.334 58.8767C230.334 59.8331 231.115 60.6083 232.078 60.6083H246.9C247.863 60.6083 248.643 59.8331 248.643 58.8767C248.643 57.9203 247.863 57.145 246.9 57.145Z" fill="white"/>
<path d="M289.62 67.5347H182.383C180.456 67.5347 178.895 69.0853 178.895 70.998V110.826C178.895 112.739 180.456 114.29 182.383 114.29H289.62C291.546 114.29 293.108 112.739 293.108 110.826V70.998C293.108 69.0853 291.546 67.5347 289.62 67.5347Z" fill="white"/>
<path d="M247.772 81.5605H189.358C187.913 81.5605 186.742 82.7235 186.742 84.158V85.9763C186.742 87.4109 187.913 88.5738 189.358 88.5738H247.772C249.216 88.5738 250.387 87.4109 250.387 85.9763V84.158C250.387 82.7235 249.216 81.5605 247.772 81.5605Z" fill="#DDE3E9"/>
<path d="M226.847 93.25H189.358C187.913 93.25 186.742 94.4129 186.742 95.8475V97.6657C186.742 99.1003 187.913 100.263 189.358 100.263H226.847C228.292 100.263 229.463 99.1003 229.463 97.6657V95.8475C229.463 94.4129 228.292 93.25 226.847 93.25Z" fill="#DDE3E9"/>
<path fill-rule="evenodd" clip-rule="evenodd" d="M280.902 96.9727C284.273 96.9727 287.005 94.2592 287.005 90.9119C287.005 87.5646 284.273 84.8511 280.902 84.8511C277.531 84.8511 274.799 87.5646 274.799 90.9119C274.799 94.2592 277.531 96.9727 280.902 96.9727Z" fill="#DDE3E9"/>
<path fill-rule="evenodd" clip-rule="evenodd" d="M280.902 93.5094C282.347 93.5094 283.518 92.3466 283.518 90.9119C283.518 89.4773 282.347 88.3145 280.902 88.3145C279.457 88.3145 278.286 89.4773 278.286 90.9119C278.286 92.3466 279.457 93.5094 280.902 93.5094Z" fill="#F2F2F2"/>
<path d="M289.62 121.216H182.383C180.456 121.216 178.895 122.766 178.895 124.679V154.117C178.895 156.03 180.456 157.581 182.383 157.581H289.62C291.546 157.581 293.108 156.03 293.108 154.117V124.679C293.108 122.766 291.546 121.216 289.62 121.216Z" fill="white"/>
<path d="M273.927 132.125H215.513C214.069 132.125 212.898 133.288 212.898 134.723V134.983C212.898 136.417 214.069 137.58 215.513 137.58H273.927C275.372 137.58 276.543 136.417 276.543 134.983V134.723C276.543 133.288 275.372 132.125 273.927 132.125Z" fill="#DDE3E9"/>
<path d="M253.003 141.216H215.513C214.069 141.216 212.898 142.379 212.898 143.814V144.074C212.898 145.508 214.069 146.671 215.513 146.671H253.003C254.448 146.671 255.619 145.508 255.619 144.074V143.814C255.619 142.379 254.448 141.216 253.003 141.216Z" fill="#DDE3E9"/>
<path fill-rule="evenodd" clip-rule="evenodd" d="M197.204 149.789C202.982 149.789 207.667 145.137 207.667 139.399C207.667 133.661 202.982 129.009 197.204 129.009C191.427 129.009 186.742 133.661 186.742 139.399C186.742 145.137 191.427 149.789 197.204 149.789Z" fill="#C5CFD6"/>
<path d="M289.62 164.508H182.383C180.456 164.508 178.895 166.058 178.895 167.971V197.409C178.895 199.322 180.456 200.873 182.383 200.873H289.62C291.546 200.873 293.108 199.322 293.108 197.409V167.971C293.108 166.058 291.546 164.508 289.62 164.508Z" fill="white"/>
<path d="M247.772 175.417H189.358C187.913 175.417 186.742 176.58 186.742 178.015V178.275C186.742 179.709 187.913 180.872 189.358 180.872H247.772C249.216 180.872 250.387 179.709 250.387 178.275V178.015C250.387 176.58 249.216 175.417 247.772 175.417Z" fill="#DDE3E9"/>
<path d="M226.847 184.508H189.358C187.913 184.508 186.742 185.671 186.742 187.106V187.366C186.742 188.8 187.913 189.963 189.358 189.963H226.847C228.292 189.963 229.463 188.8 229.463 187.366V187.106C229.463 185.671 228.292 184.508 226.847 184.508Z" fill="#AFB9C5"/>
<path fill-rule="evenodd" clip-rule="evenodd" d="M280.902 188.751C284.273 188.751 287.005 186.038 287.005 182.69C287.005 179.343 284.273 176.629 280.902 176.629C277.531 176.629 274.799 179.343 274.799 182.69C274.799 186.038 277.531 188.751 280.902 188.751Z" fill="#DDE3E9"/>
<path fill-rule="evenodd" clip-rule="evenodd" d="M280.902 185.288C282.347 185.288 283.518 184.125 283.518 182.69C283.518 181.256 282.347 180.093 280.902 180.093C279.457 180.093 278.286 181.256 278.286 182.69C278.286 184.125 279.457 185.288 280.902 185.288Z" fill="#F2F2F2"/>
<path d="M289.62 207.799H182.383C180.456 207.799 178.895 209.349 178.895 211.262V240.7C178.895 242.613 180.456 244.164 182.383 244.164H289.62C291.546 244.164 293.108 242.613 293.108 240.7V211.262C293.108 209.349 291.546 207.799 289.62 207.799Z" fill="white"/>
<path d="M273.927 218.708H215.513C214.069 218.708 212.898 219.871 212.898 221.306V221.565C212.898 223 214.069 224.163 215.513 224.163H273.927C275.372 224.163 276.543 223 276.543 221.565V221.306C276.543 219.871 275.372 218.708 273.927 218.708Z" fill="#DDE3E9"/>
<path d="M253.003 227.799H215.513C214.069 227.799 212.898 228.962 212.898 230.397V230.657C212.898 232.091 214.069 233.254 215.513 233.254H253.003C254.448 233.254 255.619 232.091 255.619 230.657V230.397C255.619 228.962 254.448 227.799 253.003 227.799Z" fill="#DDE3E9"/>
<path fill-rule="evenodd" clip-rule="evenodd" d="M197.204 236.372C202.982 236.372 207.667 231.72 207.667 225.982C207.667 220.244 202.982 215.592 197.204 215.592C191.427 215.592 186.742 220.244 186.742 225.982C186.742 231.72 191.427 236.372 197.204 236.372Z" fill="#C5CFD6"/>
<path d="M509.327 64.937H231.206C227.354 64.937 224.232 68.0382 224.232 71.8637V357.588C224.232 361.414 227.354 364.515 231.206 364.515H509.327C513.18 364.515 516.302 361.414 516.302 357.588V71.8637C516.302 68.0382 513.18 64.937 509.327 64.937Z" fill="#F2F2F2"/>
<path d="M495.378 102.168H448.298C444.445 102.168 441.323 105.269 441.323 109.095V165.374C441.323 169.199 444.445 172.3 448.298 172.3H495.378C499.23 172.3 502.352 169.199 502.352 165.374V109.095C502.352 105.269 499.23 102.168 495.378 102.168Z" fill="white"/>
<path fill-rule="evenodd" clip-rule="evenodd" d="M471.838 142.862C479.542 142.862 485.787 136.66 485.787 129.009C485.787 121.358 479.542 115.156 471.838 115.156C464.133 115.156 457.888 121.358 457.888 129.009C457.888 136.66 464.133 142.862 471.838 142.862Z" fill="#DDE3E9"/>
<path d="M491.019 146.326H452.657C451.212 146.326 450.041 147.489 450.041 148.923C450.041 150.358 451.212 151.521 452.657 151.521H491.019C492.463 151.521 493.634 150.358 493.634 148.923C493.634 147.489 492.463 146.326 491.019 146.326Z" fill="#DDE3E9"/>
<path d="M484.043 154.983H459.631C458.187 154.983 457.016 156.146 457.016 157.58C457.016 159.015 458.187 160.178 459.631 160.178H484.043C485.488 160.178 486.659 159.015 486.659 157.58C486.659 156.146 485.488 154.983 484.043 154.983Z" fill="#DDE3E9"/>
<path d="M224.232 71.8637C224.232 68.0384 227.355 64.937 231.206 64.937H509.327C513.179 64.937 516.302 68.0384 516.302 71.8637V88.3145H224.232V71.8637Z" fill="#C5CFD6"/>
<path fill-rule="evenodd" clip-rule="evenodd" d="M235.565 80.5224C237.491 80.5224 239.052 78.9717 239.052 77.059C239.052 75.1464 237.491 73.5957 235.565 73.5957C233.639 73.5957 232.078 75.1464 232.078 77.059C232.078 78.9717 233.639 80.5224 235.565 80.5224Z" fill="#F2F2F2"/>
<path fill-rule="evenodd" clip-rule="evenodd" d="M246.028 80.5219C247.954 80.5219 249.515 78.9712 249.515 77.0585C249.515 75.1459 247.954 73.5952 246.028 73.5952C244.102 73.5952 242.54 75.1459 242.54 77.0585C242.54 78.9712 244.102 80.5219 246.028 80.5219Z" fill="#F2F2F2"/>
<path fill-rule="evenodd" clip-rule="evenodd" d="M256.49 80.5219C258.416 80.5219 259.978 78.9712 259.978 77.0585C259.978 75.1459 258.416 73.5952 256.49 73.5952C254.564 73.5952 253.003 75.1459 253.003 77.0585C253.003 78.9712 254.564 80.5219 256.49 80.5219Z" fill="#F2F2F2"/>
<path d="M495.378 179.227H448.298C444.445 179.227 441.323 182.328 441.323 186.154V340.272C441.323 344.097 444.445 347.198 448.298 347.198H495.378C499.23 347.198 502.352 344.097 502.352 340.272V186.154C502.352 182.328 499.23 179.227 495.378 179.227Z" fill="white"/>
<path d="M483.172 194.812H460.504C458.578 194.812 457.016 196.362 457.016 198.275V213.86C457.016 215.773 458.578 217.323 460.504 217.323H483.172C485.098 217.323 486.659 215.773 486.659 213.86V198.275C486.659 196.362 485.098 194.812 483.172 194.812Z" fill="#DDE3E9"/>
<path d="M483.172 224.25H460.503C458.577 224.25 457.016 225.801 457.016 227.713V242.432C457.016 244.345 458.577 245.896 460.503 245.896H483.172C485.098 245.896 486.659 244.345 486.659 242.432V227.713C486.659 225.801 485.098 224.25 483.172 224.25Z" fill="#AFB9C5"/>
<path d="M483.172 252.823H460.503C458.577 252.823 457.016 254.373 457.016 256.286V271.005C457.016 272.918 458.577 274.469 460.503 274.469H483.172C485.098 274.469 486.659 272.918 486.659 271.005V256.286C486.659 254.373 485.098 252.823 483.172 252.823Z" fill="#DDE3E9"/>
<path d="M483.172 309.967H460.503C458.577 309.967 457.016 311.518 457.016 313.431V328.15C457.016 330.062 458.577 331.613 460.503 331.613H483.172C485.098 331.613 486.659 330.062 486.659 328.15V313.431C486.659 311.518 485.098 309.967 483.172 309.967Z" fill="#DDE3E9"/>
<path d="M483.172 281.395H460.503C458.577 281.395 457.016 282.946 457.016 284.858V299.577C457.016 301.49 458.577 303.041 460.503 303.041H483.172C485.098 303.041 486.659 301.49 486.659 299.577V284.858C486.659 282.946 485.098 281.395 483.172 281.395Z" fill="#C5CFD6"/>
<path d="M430.86 103.034H241.668C239.742 103.034 238.181 104.585 238.181 106.498V140.265C238.181 142.178 239.742 143.728 241.668 143.728H430.86C432.786 143.728 434.348 142.178 434.348 140.265V106.498C434.348 104.585 432.786 103.034 430.86 103.034Z" fill="white"/>
<path d="M389.011 115.242H248.643C247.199 115.242 246.028 116.405 246.028 117.839V118.748C246.028 120.183 247.199 121.346 248.643 121.346H389.011C390.456 121.346 391.627 120.183 391.627 118.748V117.839C391.627 116.405 390.456 115.242 389.011 115.242Z" fill="#DDE3E9"/>
<path d="M341.143 125.416H248.643C247.199 125.416 246.028 126.578 246.028 128.013V128.922C246.028 130.357 247.199 131.52 248.643 131.52H341.143C342.588 131.52 343.759 130.357 343.759 128.922V128.013C343.759 126.578 342.588 125.416 341.143 125.416Z" fill="#DDE3E9"/>
<path fill-rule="evenodd" clip-rule="evenodd" d="M413.383 129.442C416.754 129.442 419.486 126.728 419.486 123.381C419.486 120.034 416.754 117.32 413.383 117.32C410.013 117.32 407.281 120.034 407.281 123.381C407.281 126.728 410.013 129.442 413.383 129.442Z" fill="#DDE3E9"/>
<path fill-rule="evenodd" clip-rule="evenodd" d="M413.383 125.978C414.828 125.978 415.999 124.815 415.999 123.38C415.999 121.946 414.828 120.783 413.383 120.783C411.939 120.783 410.768 121.946 410.768 123.38C410.768 124.815 411.939 125.978 413.383 125.978Z" fill="#F2F2F2"/>
<path d="M430.86 150.654H241.668C239.742 150.654 238.181 152.205 238.181 154.118V180.958C238.181 182.871 239.742 184.422 241.668 184.422H430.86C432.786 184.422 434.348 182.871 434.348 180.958V154.118C434.348 152.205 432.786 150.654 430.86 150.654Z" fill="white"/>
<path d="M389.077 160.785H248.578C247.169 160.785 246.028 161.919 246.028 163.318C246.028 164.716 247.169 165.85 248.578 165.85H389.077C390.485 165.85 391.627 164.716 391.627 163.318C391.627 161.919 390.485 160.785 389.077 160.785Z" fill="#DDE3E9"/>
<path d="M341.209 169.227H248.578C247.169 169.227 246.028 170.36 246.028 171.759C246.028 173.158 247.169 174.292 248.578 174.292H341.209C342.617 174.292 343.759 173.158 343.759 171.759C343.759 170.36 342.617 169.227 341.209 169.227Z" fill="#DDE3E9"/>
<path fill-rule="evenodd" clip-rule="evenodd" d="M413.383 173.599C416.754 173.599 419.486 170.886 419.486 167.538C419.486 164.191 416.754 161.478 413.383 161.478C410.013 161.478 407.281 164.191 407.281 167.538C407.281 170.886 410.013 173.599 413.383 173.599Z" fill="#DDE3E9"/>
<path fill-rule="evenodd" clip-rule="evenodd" d="M413.383 170.135C414.828 170.135 415.999 168.973 415.999 167.538C415.999 166.103 414.828 164.94 413.383 164.94C411.939 164.94 410.768 166.103 410.768 167.538C410.768 168.973 411.939 170.135 413.383 170.135Z" fill="#F2F2F2"/>
<path d="M430.86 191.348H241.668C239.742 191.348 238.181 192.899 238.181 194.811V221.652C238.181 223.565 239.742 225.116 241.668 225.116H430.86C432.786 225.116 434.348 223.565 434.348 221.652V194.811C434.348 192.899 432.786 191.348 430.86 191.348Z" fill="white"/>
<path d="M389.077 201.479H248.578C247.169 201.479 246.028 202.613 246.028 204.012C246.028 205.411 247.169 206.545 248.578 206.545H389.077C390.485 206.545 391.627 205.411 391.627 204.012C391.627 202.613 390.485 201.479 389.077 201.479Z" fill="#DDE3E9"/>
<path d="M341.209 209.921H248.578C247.169 209.921 246.028 211.055 246.028 212.453C246.028 213.852 247.169 214.986 248.578 214.986H341.209C342.617 214.986 343.759 213.852 343.759 212.453C343.759 211.055 342.617 209.921 341.209 209.921Z" fill="#DDE3E9"/>
<path fill-rule="evenodd" clip-rule="evenodd" d="M413.383 214.293C416.754 214.293 419.486 211.579 419.486 208.232C419.486 204.884 416.754 202.171 413.383 202.171C410.013 202.171 407.281 204.884 407.281 208.232C407.281 211.579 410.013 214.293 413.383 214.293Z" fill="#DDE3E9"/>
<path fill-rule="evenodd" clip-rule="evenodd" d="M413.383 210.83C414.828 210.83 415.999 209.667 415.999 208.232C415.999 206.798 414.828 205.635 413.383 205.635C411.939 205.635 410.768 206.798 410.768 208.232C410.768 209.667 411.939 210.83 413.383 210.83Z" fill="#AFB9C5"/>
<path d="M430.86 313.431H241.668C239.742 313.431 238.181 314.982 238.181 316.894V343.735C238.181 345.648 239.742 347.199 241.668 347.199H430.86C432.786 347.199 434.348 345.648 434.348 343.735V316.894C434.348 314.982 432.786 313.431 430.86 313.431Z" fill="white"/>
<path d="M389.077 323.562H248.578C247.169 323.562 246.028 324.695 246.028 326.094C246.028 327.493 247.169 328.627 248.578 328.627H389.077C390.485 328.627 391.627 327.493 391.627 326.094C391.627 324.695 390.485 323.562 389.077 323.562Z" fill="#DDE3E9"/>
<path d="M341.209 332.003H248.578C247.169 332.003 246.028 333.137 246.028 334.535C246.028 335.934 247.169 337.068 248.578 337.068H341.209C342.617 337.068 343.759 335.934 343.759 334.535C343.759 333.137 342.617 332.003 341.209 332.003Z" fill="#DDE3E9"/>
<path fill-rule="evenodd" clip-rule="evenodd" d="M413.383 336.376C416.754 336.376 419.486 333.662 419.486 330.315C419.486 326.967 416.754 324.254 413.383 324.254C410.013 324.254 407.281 326.967 407.281 330.315C407.281 333.662 410.013 336.376 413.383 336.376Z" fill="#DDE3E9"/>
<path fill-rule="evenodd" clip-rule="evenodd" d="M413.383 332.912C414.828 332.912 415.999 331.749 415.999 330.314C415.999 328.88 414.828 327.717 413.383 327.717C411.939 327.717 410.768 328.88 410.768 330.314C410.768 331.749 411.939 332.912 413.383 332.912Z" fill="#F2F2F2"/>
<path d="M430.86 272.736H241.668C239.742 272.736 238.181 274.287 238.181 276.2V303.04C238.181 304.953 239.742 306.504 241.668 306.504H430.86C432.786 306.504 434.348 304.953 434.348 303.04V276.2C434.348 274.287 432.786 272.736 430.86 272.736Z" fill="white"/>
<path d="M389.077 282.866H248.578C247.169 282.866 246.028 284 246.028 285.399C246.028 286.797 247.169 287.931 248.578 287.931H389.077C390.485 287.931 391.627 286.797 391.627 285.399C391.627 284 390.485 282.866 389.077 282.866Z" fill="#DDE3E9"/>
<path d="M341.209 291.308H248.578C247.169 291.308 246.028 292.442 246.028 293.841C246.028 295.239 247.169 296.373 248.578 296.373H341.209C342.617 296.373 343.759 295.239 343.759 293.841C343.759 292.442 342.617 291.308 341.209 291.308Z" fill="#DDE3E9"/>
<path fill-rule="evenodd" clip-rule="evenodd" d="M413.383 295.681C416.754 295.681 419.486 292.967 419.486 289.62C419.486 286.273 416.754 283.559 413.383 283.559C410.013 283.559 407.281 286.273 407.281 289.62C407.281 292.967 410.013 295.681 413.383 295.681Z" fill="#DDE3E9"/>
<path fill-rule="evenodd" clip-rule="evenodd" d="M413.383 292.217C414.828 292.217 415.999 291.055 415.999 289.62C415.999 288.185 414.828 287.022 413.383 287.022C411.939 287.022 410.768 288.185 410.768 289.62C410.768 291.055 411.939 292.217 413.383 292.217Z" fill="#F2F2F2"/>
<path d="M430.86 232.043H241.668C239.742 232.043 238.181 233.594 238.181 235.506V262.347C238.181 264.26 239.742 265.81 241.668 265.81H430.86C432.786 265.81 434.348 264.26 434.348 262.347V235.506C434.348 233.594 432.786 232.043 430.86 232.043Z" fill="white"/>
<path d="M389.077 242.173H248.578C247.169 242.173 246.028 243.307 246.028 244.705C246.028 246.104 247.169 247.238 248.578 247.238H389.077C390.485 247.238 391.627 246.104 391.627 244.705C391.627 243.307 390.485 242.173 389.077 242.173Z" fill="#DDE3E9"/>
<path d="M341.209 250.615H248.578C247.169 250.615 246.028 251.749 246.028 253.147C246.028 254.546 247.169 255.68 248.578 255.68H341.209C342.617 255.68 343.759 254.546 343.759 253.147C343.759 251.749 342.617 250.615 341.209 250.615Z" fill="#DDE3E9"/>
<path fill-rule="evenodd" clip-rule="evenodd" d="M413.383 254.987C416.754 254.987 419.486 252.273 419.486 248.926C419.486 245.579 416.754 242.865 413.383 242.865C410.013 242.865 407.281 245.579 407.281 248.926C407.281 252.273 410.013 254.987 413.383 254.987Z" fill="#DDE3E9"/>
<path fill-rule="evenodd" clip-rule="evenodd" d="M413.383 251.524C414.828 251.524 415.999 250.361 415.999 248.926C415.999 247.491 414.828 246.329 413.383 246.329C411.939 246.329 410.768 247.491 410.768 248.926C410.768 250.361 411.939 251.524 413.383 251.524Z" fill="#F2F2F2"/>
<path fill-rule="evenodd" clip-rule="evenodd" d="M588.653 212.454C585.214 210.138 580.641 209.531 576.526 209.531C560.452 209.531 545.344 215.454 532.292 224.278C525.14 229.113 518.743 235.271 513.095 241.681C509.834 245.383 506.927 249.385 504.869 253.838C503.48 256.844 502.527 259.975 501.881 263.205C501.094 267.141 500.468 271.157 500.185 275.159C500.074 276.735 499.152 285.096 501.79 285.238C501.775 285.444 501.771 285.64 501.788 285.816C496.059 294.712 492.52 305.136 489.237 315.02C486.382 323.621 483.837 332.294 482.186 341.192C480.011 352.906 478.582 364.797 477.903 376.68C477.758 379.233 477.657 381.789 477.571 384.345C477.498 386.526 477.424 388.707 477.351 390.889C477.271 393.333 476.838 396.147 477.229 398.577C477.57 400.693 479.414 400.373 479.496 398.267C479.595 395.724 479.578 393.176 479.691 390.631C479.84 387.254 479.993 383.876 480.16 380.499C481.318 357.042 485.665 333.93 493.686 311.772C496.933 302.806 500.653 294.318 505.434 286.023C509.637 278.73 514.694 271.669 519.862 265.094C524.885 258.704 530.108 252.462 536.263 247.048C541.257 242.655 546.752 238.827 552.4 235.265C559.572 230.742 566.732 226.329 574.502 222.857C578.541 221.053 582.656 219.437 586.727 217.705C587.459 217.394 588.244 217.092 588.949 216.731C591.298 215.527 590.525 213.715 588.653 212.454Z" fill="#E0BAF1"/>
<path fill-rule="evenodd" clip-rule="evenodd" d="M523.99 294.382C530.509 294.382 536.31 295.224 542.317 297.796C547.502 300.017 552.227 302.957 556.815 306.157C563.267 310.658 568.35 315.897 571.908 322.838C574.034 326.984 575.594 332.852 574.165 337.375C572.485 342.702 567.867 347.145 561.786 346.207C558.026 345.627 554.579 343.155 551.721 340.828C548.302 338.044 545.565 334.698 543.305 330.981C539.619 324.918 537.454 318.064 534.322 311.728C532.836 308.72 531.4 305.693 529.62 302.835C528.739 301.42 527.801 300.018 526.465 298.966C525.75 298.403 522.735 297.43 523.887 296.167C506.982 296.387 492.006 309.281 488.76 325.241C488.458 326.729 488.222 328.229 487.971 329.726C487.815 330.67 487.878 334.156 487.027 334.76C485.151 336.091 485.939 332.045 486.02 331.462C486.229 329.957 486.45 328.453 486.683 326.951C487.951 318.782 491.612 311.189 497.719 305.364C504.701 298.703 514.124 294.382 523.99 294.382Z" fill="#B564DB"/>
<path fill-rule="evenodd" clip-rule="evenodd" d="M54.1659 274.24C70.4402 301.355 89.3949 327.608 100.778 357.254C100.319 353.759 99.8328 350.268 99.2878 346.783C96.4003 328.305 92.81 309.963 89.0383 291.643C87.1176 282.315 85.0854 273.02 83.0016 263.727C81.8813 258.736 80.774 253.742 79.6302 248.755C79.3529 247.547 79.1149 245.437 78.7688 243.299C89.8309 279.349 100.499 315.427 108.302 352.343C109.325 357.189 110.197 362.025 110.911 366.853C111.156 365.752 111.396 364.65 111.659 363.552C114.816 350.385 119.552 337.323 125.191 325.011C127.887 319.124 130.983 313.365 134.629 307.999C136.903 304.654 142.265 300.678 144.338 297.252C132.996 317.913 128.9 343.763 122.351 366.224C120.753 371.705 119.144 377.177 117.568 382.659C127.444 362.989 142.768 346.827 164.073 339.824C138.284 356.746 122.816 386.381 112.392 416.69C112.358 417.05 112.317 417.409 112.281 417.769C115.349 411.988 119.212 406.758 124.449 403.097C135.657 395.256 148.09 397.54 158.962 404.266C150.429 398.879 135.009 403.784 127.829 409.259C122.689 413.178 118.297 418.435 114.482 423.565C113.569 424.795 112.321 426.229 111.004 427.759C109.157 439.665 106.148 451.49 101.886 463.22C102.59 459.853 102.081 454.468 102.277 451.958C102.297 451.687 102.315 451.414 102.336 451.144C101.688 453.712 101.062 456.251 100.46 458.75C101.658 453.983 102.308 449.006 102.816 443.978C102.947 441.818 103.075 439.656 103.209 437.496C103.167 433.395 102.997 429.279 102.709 425.155C101.69 421.148 100.548 417.367 99.6052 414.224C96.2076 402.88 91.2249 392.014 85.0932 381.876C79.4985 372.625 72.8013 364.245 65.0701 356.667C60.9022 352.582 56.5404 348.692 52.24 344.748C50.6849 343.322 47.9054 339.817 45.5015 337.989C63.0087 347.574 81.0286 357.944 93.8004 373.388C92.3026 367.678 90.6766 362.049 88.9564 356.532C80.2283 328.543 69.2083 299.537 54.1659 274.24Z" fill="#DDE3E9"/>
<path fill-rule="evenodd" clip-rule="evenodd" d="M71.6572 427.721C71.6572 458.803 74.1357 484 107.403 484C140.671 484 143.149 458.803 143.149 427.721" fill="#C5CFD6"/>
<path d="M447.426 30.304C447.426 28.8695 446.255 27.7065 444.81 27.7065C443.365 27.7065 442.194 28.8695 442.194 30.304V46.7548C442.194 48.1894 443.365 49.3523 444.81 49.3523C446.255 49.3523 447.426 48.1894 447.426 46.7548V30.304Z" fill="#DDE3E9"/>
<path d="M459.631 16.4505C459.631 15.016 458.46 13.853 457.016 13.853C455.571 13.853 454.4 15.016 454.4 16.4505V46.7546C454.4 48.1892 455.571 49.3521 457.016 49.3521C458.46 49.3521 459.631 48.1892 459.631 46.7546V16.4505Z" fill="#DDE3E9"/>
<path d="M471.838 9.52425C471.838 8.0897 470.667 6.92676 469.222 6.92676C467.778 6.92676 466.607 8.0897 466.607 9.52425V46.755C466.607 48.1896 467.778 49.3525 469.222 49.3525C470.667 49.3525 471.838 48.1896 471.838 46.755V9.52425Z" fill="#DDE3E9"/>
<path d="M484.043 16.4505C484.043 15.016 482.872 13.853 481.428 13.853C479.983 13.853 478.812 15.016 478.812 16.4505V46.7546C478.812 48.1892 479.983 49.3521 481.428 49.3521C482.872 49.3521 484.043 48.1892 484.043 46.7546V16.4505Z" fill="#DDE3E9"/>
<path d="M496.249 2.5975C496.249 1.16294 495.078 0 493.634 0C492.189 0 491.018 1.16294 491.018 2.5975V46.7549C491.018 48.1895 492.189 49.3524 493.634 49.3524C495.078 49.3524 496.249 48.1895 496.249 46.7549V2.5975Z" fill="#C5CFD6"/>
<path fill-rule="evenodd" clip-rule="evenodd" d="M13.2426 265.165C13.2426 255.521 21.091 247.627 30.6797 247.627V265.165L18.7632 277.931C15.3734 274.81 13.2426 270.231 13.2426 265.165Z" fill="#F2F2F2"/>
<path fill-rule="evenodd" clip-rule="evenodd" d="M30.2183 264.945H47.8274C47.8274 269.465 45.9705 273.701 43.0351 276.779C39.8065 280.145 35.2087 282.261 30.2183 282.261C25.6216 282.261 21.4138 280.435 18.1844 277.549L30.2183 264.945Z" fill="#AFB9C5"/>
<path fill-rule="evenodd" clip-rule="evenodd" d="M48.1167 264.944C48.1167 255.421 40.2683 247.627 30.6797 247.627V264.944H48.1167ZM21.9611 247.627L28.936 263.212L13.2426 256.285C14.7945 252.245 18.2793 249.168 21.9611 247.627Z" fill="#C5CFD6"/>
<path fill-rule="evenodd" clip-rule="evenodd" d="M580.615 272.891C578.94 274.658 576.567 275.767 573.927 275.767C568.856 275.767 564.744 271.697 564.744 266.676C564.744 261.655 568.856 257.584 573.927 257.584V240.701C559.499 240.701 547.689 252.392 547.689 266.676C547.689 280.959 559.499 292.651 573.927 292.651C581.506 292.651 588.356 289.476 593.025 284.427L580.615 272.891Z" fill="#F2F2F2"/>
<path fill-rule="evenodd" clip-rule="evenodd" d="M573.844 240.7V257.584C578.9 257.584 582.999 261.654 582.999 266.675H600C600 252.392 588.227 240.7 573.844 240.7Z" fill="#AFB9C5"/>
<path fill-rule="evenodd" clip-rule="evenodd" d="M582.648 266.675C582.648 269.625 581.248 272.247 579.076 273.94L589.766 287.455C595.989 282.617 600 275.116 600 266.675H582.648Z" fill="#C5CFD6"/>
<path fill-rule="evenodd" clip-rule="evenodd" d="M414.34 34.2035C413.051 35.5577 411.226 36.408 409.195 36.408C405.294 36.408 402.131 33.2875 402.131 29.4381C402.131 25.5887 405.294 22.4681 409.195 22.4681V9.52393C398.096 9.52393 389.012 18.4873 389.012 29.4381C389.012 40.3888 398.096 49.3522 409.195 49.3522C415.025 49.3522 420.294 46.9183 423.886 43.0472L414.34 34.2035Z" fill="#F2F2F2"/>
<path fill-rule="evenodd" clip-rule="evenodd" d="M409.064 9.52393V22.4681C412.94 22.4681 416.083 25.5887 416.083 29.4381H429.117C429.117 18.4873 420.091 9.52393 409.064 9.52393Z" fill="#AFB9C5"/>
<path fill-rule="evenodd" clip-rule="evenodd" d="M416.103 29.439C416.103 31.6513 415.053 33.618 413.424 34.8877L421.441 45.0239C426.109 41.3951 429.117 35.7699 429.117 29.439H416.103Z" fill="#C5CFD6"/>
<path fill-rule="evenodd" clip-rule="evenodd" d="M96.9477 49.3411C96.9441 49.3501 96.9405 49.3591 96.9351 49.37C96.9405 49.361 96.9477 49.3248 96.9477 49.3411Z" fill="#C5CFD6"/>
<path fill-rule="evenodd" clip-rule="evenodd" d="M96.9394 49.353C96.9394 49.3548 96.9377 49.3584 96.9377 49.3619C96.9377 49.353 96.9538 49.326 96.9394 49.353Z" fill="#C5CFD6"/>
<path fill-rule="evenodd" clip-rule="evenodd" d="M96.9992 49.2075C96.987 49.2424 96.9713 49.2755 96.9573 49.3104C96.9643 49.293 96.9713 49.279 96.9782 49.2616C96.7969 49.7149 96.912 49.4203 96.9992 49.2075Z" fill="#C5CFD6"/>
<path fill-rule="evenodd" clip-rule="evenodd" d="M96.96 49.312C96.953 49.3277 96.946 49.3451 96.9391 49.3608C96.8885 49.4585 96.96 49.312 96.96 49.312Z" fill="#C5CFD6"/>
<path fill-rule="evenodd" clip-rule="evenodd" d="M96.9397 49.3566C96.9397 49.3539 96.9397 49.3539 96.9425 49.3511C96.9397 49.3539 96.9397 49.3539 96.9397 49.3566Z" fill="#C5CFD6"/>
<path fill-rule="evenodd" clip-rule="evenodd" d="M96.9319 49.3664C96.9215 49.3873 96.9807 49.2862 96.9319 49.3664V49.3664Z" fill="#C5CFD6"/>
<path fill-rule="evenodd" clip-rule="evenodd" d="M96.9393 49.3566L96.9448 49.3511C96.942 49.3539 96.942 49.3566 96.9393 49.3566Z" fill="#C5CFD6"/>
<path d="M134.43 4.3291H58.5792C56.6532 4.3291 55.0918 5.87969 55.0918 7.79243V55.4132C55.0918 57.3259 56.6532 58.8765 58.5792 58.8765H134.43C136.356 58.8765 137.918 57.3259 137.918 55.4132V7.79243C137.918 5.87969 136.356 4.3291 134.43 4.3291Z" fill="#DDE3E9"/>
<path fill-rule="evenodd" clip-rule="evenodd" d="M86.4789 19.9146L62.067 58.877H110.891L86.4789 19.9146Z" fill="#AFB9C5"/>
<path fill-rule="evenodd" clip-rule="evenodd" d="M110.455 30.3042L89.0943 58.8766H131.815L110.455 30.3042Z" fill="#C5CFD6"/>
<path fill-rule="evenodd" clip-rule="evenodd" d="M119.609 30.3037C123.943 30.3037 127.456 26.8149 127.456 22.5112C127.456 18.2075 123.943 14.7188 119.609 14.7188C115.275 14.7188 111.762 18.2075 111.762 22.5112C111.762 26.8149 115.275 30.3037 119.609 30.3037Z" fill="white"/>
<path fill-rule="evenodd" clip-rule="evenodd" d="M512.809 419.052C512.813 419.061 512.816 419.07 512.822 419.08C512.816 419.071 512.809 419.035 512.809 419.052Z" fill="#C5CFD6"/>
<path fill-rule="evenodd" clip-rule="evenodd" d="M512.817 419.064C512.817 419.066 512.819 419.07 512.819 419.073C512.819 419.064 512.803 419.037 512.817 419.064Z" fill="#C5CFD6"/>
<path fill-rule="evenodd" clip-rule="evenodd" d="M512.757 418.917C512.769 418.952 512.785 418.986 512.799 419.02C512.792 419.003 512.785 418.989 512.778 418.972C512.959 419.425 512.844 419.13 512.757 418.917Z" fill="#C5CFD6"/>
<path fill-rule="evenodd" clip-rule="evenodd" d="M512.796 419.022C512.803 419.038 512.81 419.055 512.817 419.071C512.868 419.168 512.796 419.022 512.796 419.022Z" fill="#C5CFD6"/>
<path fill-rule="evenodd" clip-rule="evenodd" d="M512.817 419.067C512.817 419.064 512.817 419.064 512.814 419.062C512.817 419.064 512.817 419.064 512.817 419.067Z" fill="#C5CFD6"/>
<path fill-rule="evenodd" clip-rule="evenodd" d="M512.824 419.077C512.834 419.098 512.775 418.997 512.824 419.077V419.077Z" fill="#C5CFD6"/>
<path fill-rule="evenodd" clip-rule="evenodd" d="M512.819 419.067L512.813 419.062C512.816 419.064 512.816 419.067 512.819 419.067Z" fill="#C5CFD6"/>
<path d="M454.401 352.394H571.229C573.155 352.394 574.717 353.945 574.717 355.857V430.319C574.717 432.232 573.155 433.782 571.229 433.782H454.401C452.475 433.782 450.914 432.232 450.914 430.319V355.857C450.914 353.945 452.475 352.394 454.401 352.394Z" fill="#DDE3E9"/>
<path fill-rule="evenodd" clip-rule="evenodd" d="M528.748 375.771L564.541 433.782H492.954L528.748 375.771Z" fill="#AFB9C5"/>
<path fill-rule="evenodd" clip-rule="evenodd" d="M491.842 391.31L523.486 433.781H460.198L491.842 391.31Z" fill="#C5CFD6"/>
<path fill-rule="evenodd" clip-rule="evenodd" d="M478.377 391.357C471.876 391.357 466.607 386.124 466.607 379.668C466.607 373.213 471.876 367.979 478.377 367.979C484.877 367.979 490.147 373.213 490.147 379.668C490.147 386.124 484.877 391.357 478.377 391.357Z" fill="white"/>
</svg>
